<?xml version="1.0" encoding="utf-8"?>
<svg viewBox="175.085 103.016 319.318 128.411" xmlns="http://www.w3.org/2000/svg">
  <defs/>
  <g fill="#004c97" fill-rule="none" stroke="none" stroke-width="1" stroke-linecap="butt" stroke-linejoin="miter" stroke-miterlimit="10" stroke-dasharray="" stroke-dashoffset="0" font-family="none" font-weight="none" font-size="none" text-anchor="none" style="mix-blend-mode: normal" transform="matrix(1, 0, 0, 1, 55.967489, -2.300266)">
    <g data-paper-data="{&quot;isGlobalGroup&quot;:true,&quot;bounds&quot;:{&quot;x&quot;:120.96055508071692,&quot;y&quot;:115,&quot;width&quot;:308.07888983856617,&quot;height&quot;:240}}">
      <g data-paper-data="{&quot;isPrimaryText&quot;:true}" fill-rule="nonzero" id="element-id-39904"/>
      <g data-paper-data="{&quot;fillRule&quot;:&quot;evenodd&quot;,&quot;fillRuleOriginal&quot;:&quot;evenodd&quot;,&quot;isIcon&quot;:true,&quot;iconStyle&quot;:&quot;standalone&quot;,&quot;selectedEffects&quot;:{&quot;container&quot;:&quot;&quot;,&quot;transformation&quot;:&quot;&quot;,&quot;pattern&quot;:&quot;&quot;},&quot;bounds&quot;:{&quot;x&quot;:127.21343630945452,&quot;y&quot;:115,&quot;width&quot;:295.5731273810909,&quot;height&quot;:105.15677256270439},&quot;iconType&quot;:&quot;icon&quot;,&quot;rawIconId&quot;:&quot;e412f368-ec79-42ef-9a89-0f73b97bd4d8&quot;,&quot;isSvgStockIcon&quot;:true,&quot;combineTerms&quot;:&quot;cloud&quot;,&quot;combineTermsExtended&quot;:{&quot;icon&quot;:[&quot;cloud&quot;]},&quot;isDetailed&quot;:false,&quot;suitableAsStandaloneIcon&quot;:true}" fill-rule="evenodd" id="element-id-18280">
        <path d="M127.21344,200.40934v-0.12532c26.49825,-6.25255 53.81441,-8.32009 80.98704,-10.35866c-2.98529,-4.6405 -5.64545,-9.63568 -6.29571,-15.10379c-0.17734,-1.47787 -0.17734,-3.01485 0,-4.49271c0.47292,-4.01979 2.24636,-7.8918 5.43855,-10.3155c4.25625,-3.2513 11.20222,-2.92617 14.39441,1.30052c-3.0444,-4.49271 0.59115,-11.26134 5.76368,-13.24168c5.32032,-2.03945 11.23178,-0.59115 16.72944,0.88672c-7.41889,-6.56172 -6.14792,-19.47827 0.88672,-26.39468c7.03464,-6.94597 17.91173,-8.63074 27.63609,-6.97553c5.76368,0.97539 11.61602,3.13308 15.3698,7.59623c5.02474,5.91146 5.32032,14.39441 5.37943,22.16798c5.58633,-8.01003 16.19741,-12.50274 25.65575,-10.07904c9.45834,2.4237 16.759,12.1185 15.66538,21.84285c3.31042,-2.6306 8.57162,0.32513 9.81303,4.37448c1.24141,4.04935 -0.23646,8.36472 -1.71432,12.3254c7.03464,-2.12813 14.80821,-1.77344 21.63595,1.00495c0.91628,0.35469 1.86211,0.8276 2.4237,1.62565c1.27096,1.83255 0.02956,3.48776 -1.62565,5.2612c-1.74388,1.86211 -3.99024,3.84245 -4.16758,6.20704c13.53725,1.35964 27.04494,2.71927 40.55263,4.07891c-14.15795,0.4138 -28.31591,2.54193 -41.97138,6.29571c21.11722,0.37715 42.23444,2.54754 63.01619,6.45561v0.334c-7.11651,0.64878 -14.25786,1.088 -21.39949,1.36821c-10.37462,0.38425 -20.71968,0.4138 -31.03518,0.14779c5.58633,0.8276 11.11355,2.18724 16.49298,4.01979c-1.69097,-0.57696 -4.61419,-0.09606 -7.17386,0.32513c-1.24318,0.20454 -2.40064,0.39518 -3.28943,0.44336c-3.63555,0.2069 -7.2711,0.35469 -10.90665,0.44336c-7.30066,0.14779 -14.57176,0.08867 -21.84285,-0.23646c-7.41889,-0.32513 -14.80821,-0.85716 -22.19754,-1.71432c-0.62159,-0.0801 -1.46427,-0.31006 -2.37345,-0.55804c-1.77107,-0.48297 -3.79427,-1.0351 -4.9272,-0.68337c-2.68972,0.8276 -2.6306,4.69961 -4.16758,6.59128c-1.95078,2.4237 -5.94102,2.15768 -8.42383,0.26602c-2.45326,-1.86211 -3.78334,-4.87696 -5.02474,-7.71446c-8.89675,9.63568 -25.77398,10.25639 -35.35055,1.30052c-2.15768,6.00013 -8.01003,10.49285 -14.36485,11.02488c-6.35482,0.53203 -12.88699,-2.95573 -15.99051,-8.51251c-2.60104,3.60599 -7.2711,5.23164 -11.7047,5.2612c-4.46315,0.02956 -8.77852,-1.33008 -13.00522,-2.68972c-2.92617,-0.91628 -5.82279,-1.83255 -8.71941,-2.77839c-20.77879,-0.02956 -41.52802,-0.50247 -62.27726,-1.38919c2.51237,-0.79805 5.02474,-1.50742 7.56667,-2.18724c18.56199,-4.87696 37.86292,-6.67995 57.01606,-8.42383c-24.07798,-2.47188 -48.47077,-2.11128 -72.47453,1.02564z" data-paper-data="{&quot;isPathIcon&quot;:true}" id="element-id-77253"/>
      </g>
    </g>
  </g>
  <rect data-element-id="element-id-18280" stroke-width="2" fill="transparent" class="invisible-element-box grouping-element" x="182.967" y="112.7" width="296" height="105" data-element-name="isIcon"/>
  <rect data-element-id="element-id-77253" stroke-width="2" fill="transparent" class="invisible-element-box individual-element" x="182.967" y="112.7" width="400" height="300"/>
</svg>